<svg width="1680" height="1000" viewBox="0 0 1680 1000" fill="none" xmlns="http://www.w3.org/2000/svg">
<path fill-rule="evenodd" clip-rule="evenodd" d="M741.325 260.814H774.977L924.1 466.142L1076.52 260.814L1283.84 0L943.235 487.721L1118.75 727.707H1083.78L924.1 509.301L763.76 727.707H729.448L906.284 487.721L741.325 260.814ZM396.231 260.814H712.952V285.663H425.264V472.681H695.796V497.53H425.264V702.858H716.251V727.707H396.231V260.814ZM1131.29 260.814V285.663L1296.91 285.663V727.707H1325.94V285.663H1492.22V260.814H1131.29Z" fill="black"/>
<path d="M0 260.814H36.291L536.722 1000L329.918 727.707L30.3524 296.125L29.0328 727.707H0V260.814Z" fill="black"/>
<path fill-rule="evenodd" clip-rule="evenodd" d="M1639.98 696.616C1617.39 696.616 1602.2 685.1 1601.08 667.093H1616.75C1618.09 676.655 1627.56 682.727 1641.18 682.727C1653.89 682.727 1663.22 676.236 1663.22 667.302C1663.22 659.625 1657.28 655.019 1643.8 651.878L1630.66 648.737C1612.23 644.48 1603.83 635.686 1603.83 620.889C1603.83 602.952 1618.66 591.017 1640.9 591.017C1661.59 591.017 1676.7 602.952 1677.62 619.912H1662.23C1660.74 610.63 1652.55 604.837 1640.69 604.837C1628.19 604.837 1619.86 610.769 1619.86 619.842C1619.86 627.031 1625.23 631.149 1638.5 634.22L1649.73 636.942C1670.63 641.758 1679.25 650.133 1679.25 665.278C1679.25 684.541 1664.13 696.616 1639.98 696.616ZM1517.82 668C1517.82 685.309 1530.46 696.616 1548.89 696.616C1568.52 696.616 1580.39 684.96 1580.39 664.72V593.46H1564.57V664.65C1564.57 675.887 1558.85 681.889 1548.75 681.889C1539.71 681.889 1533.57 676.306 1533.36 668H1517.82ZM1489.29 695.36C1495.29 695.36 1499.67 690.823 1499.67 684.96C1499.67 679.098 1495.29 674.561 1489.29 674.561C1483.36 674.561 1478.91 679.098 1478.91 684.96C1478.91 690.823 1483.36 695.36 1489.29 695.36Z" fill="black"/>
</svg>
